<mxfile host="app.diagrams.net" modified="2024-04-15T13:42:28.560Z" agent="Mozilla/5.0 (Windows NT 10.0; Win64; x64) AppleWebKit/537.36 (KHTML, like Gecko) Chrome/123.0.0.0 Safari/537.36" etag="jlfkTqr456UUiBozF2I9" version="24.2.3" type="device">
  <diagram name="PÃ¡gina-1" id="j_F0vpjZhp1nq2qoxxfN">
    <mxGraphModel dx="874" dy="434" grid="1" gridSize="10" guides="1" tooltips="1" connect="1" arrows="1" fold="1" page="1" pageScale="1" pageWidth="827" pageHeight="1169" math="0" shadow="0">
      <root>
        <mxCell id="0" />
        <mxCell id="1" parent="0" />
        <mxCell id="VbfOcrhfjZlmH5prXV36-1" value="Trabajador" style="swimlane;fontStyle=1;align=center;verticalAlign=top;childLayout=stackLayout;horizontal=1;startSize=26;horizontalStack=0;resizeParent=1;resizeParentMax=0;resizeLast=0;collapsible=1;marginBottom=0;whiteSpace=wrap;html=1;" vertex="1" parent="1">
          <mxGeometry x="40" y="90" width="190" height="158" as="geometry" />
        </mxCell>
        <mxCell id="VbfOcrhfjZlmH5prXV36-2" value="- nombre: String&lt;div&gt;- apellido: String&lt;/div&gt;&lt;div&gt;- cuit: Int&lt;/div&gt;" style="text;strokeColor=none;fillColor=none;align=left;verticalAlign=top;spacingLeft=4;spacingRight=4;overflow=hidden;rotatable=0;points=[[0,0.5],[1,0.5]];portConstraint=eastwest;whiteSpace=wrap;html=1;" vertex="1" parent="VbfOcrhfjZlmH5prXV36-1">
          <mxGeometry y="26" width="190" height="54" as="geometry" />
        </mxCell>
        <mxCell id="VbfOcrhfjZlmH5prXV36-3" value="" style="line;strokeWidth=1;fillColor=none;align=left;verticalAlign=middle;spacingTop=-1;spacingLeft=3;spacingRight=3;rotatable=0;labelPosition=right;points=[];portConstraint=eastwest;strokeColor=inherit;" vertex="1" parent="VbfOcrhfjZlmH5prXV36-1">
          <mxGeometry y="80" width="190" height="8" as="geometry" />
        </mxCell>
        <mxCell id="VbfOcrhfjZlmH5prXV36-4" value="+ getMontoImponible(): Double&lt;div&gt;+ getMontoPercibido(): Double&lt;/div&gt;&lt;div&gt;+ getimpuestoAPagar(): Double&lt;/div&gt;" style="text;strokeColor=none;fillColor=none;align=left;verticalAlign=top;spacingLeft=4;spacingRight=4;overflow=hidden;rotatable=0;points=[[0,0.5],[1,0.5]];portConstraint=eastwest;whiteSpace=wrap;html=1;" vertex="1" parent="VbfOcrhfjZlmH5prXV36-1">
          <mxGeometry y="88" width="190" height="70" as="geometry" />
        </mxCell>
        <mxCell id="VbfOcrhfjZlmH5prXV36-5" value="Ingreso" style="swimlane;fontStyle=1;align=center;verticalAlign=top;childLayout=stackLayout;horizontal=1;startSize=26;horizontalStack=0;resizeParent=1;resizeParentMax=0;resizeLast=0;collapsible=1;marginBottom=0;whiteSpace=wrap;html=1;" vertex="1" parent="1">
          <mxGeometry x="400" y="90" width="180" height="124" as="geometry" />
        </mxCell>
        <mxCell id="VbfOcrhfjZlmH5prXV36-6" value="- mesFecha: Date&lt;div&gt;- concepto: String&lt;/div&gt;&lt;div&gt;- montoPercibido: Double&lt;/div&gt;" style="text;strokeColor=none;fillColor=none;align=left;verticalAlign=top;spacingLeft=4;spacingRight=4;overflow=hidden;rotatable=0;points=[[0,0.5],[1,0.5]];portConstraint=eastwest;whiteSpace=wrap;html=1;" vertex="1" parent="VbfOcrhfjZlmH5prXV36-5">
          <mxGeometry y="26" width="180" height="64" as="geometry" />
        </mxCell>
        <mxCell id="VbfOcrhfjZlmH5prXV36-7" value="" style="line;strokeWidth=1;fillColor=none;align=left;verticalAlign=middle;spacingTop=-1;spacingLeft=3;spacingRight=3;rotatable=0;labelPosition=right;points=[];portConstraint=eastwest;strokeColor=inherit;" vertex="1" parent="VbfOcrhfjZlmH5prXV36-5">
          <mxGeometry y="90" width="180" height="8" as="geometry" />
        </mxCell>
        <mxCell id="VbfOcrhfjZlmH5prXV36-8" value="+ getMontoPercibido(): Double" style="text;strokeColor=none;fillColor=none;align=left;verticalAlign=top;spacingLeft=4;spacingRight=4;overflow=hidden;rotatable=0;points=[[0,0.5],[1,0.5]];portConstraint=eastwest;whiteSpace=wrap;html=1;" vertex="1" parent="VbfOcrhfjZlmH5prXV36-5">
          <mxGeometry y="98" width="180" height="26" as="geometry" />
        </mxCell>
        <mxCell id="VbfOcrhfjZlmH5prXV36-9" value="IngresoPorHorasExtra" style="swimlane;fontStyle=1;align=center;verticalAlign=top;childLayout=stackLayout;horizontal=1;startSize=20;horizontalStack=0;resizeParent=1;resizeParentMax=0;resizeLast=0;collapsible=1;marginBottom=0;whiteSpace=wrap;html=1;" vertex="1" parent="1">
          <mxGeometry x="400" y="310" width="220" height="140" as="geometry" />
        </mxCell>
        <mxCell id="VbfOcrhfjZlmH5prXV36-10" value="- cantDeHorasExtra: Double&amp;nbsp;" style="text;strokeColor=none;fillColor=none;align=left;verticalAlign=top;spacingLeft=4;spacingRight=4;overflow=hidden;rotatable=0;points=[[0,0.5],[1,0.5]];portConstraint=eastwest;whiteSpace=wrap;html=1;" vertex="1" parent="VbfOcrhfjZlmH5prXV36-9">
          <mxGeometry y="20" width="220" height="64" as="geometry" />
        </mxCell>
        <mxCell id="VbfOcrhfjZlmH5prXV36-11" value="" style="line;strokeWidth=1;fillColor=none;align=left;verticalAlign=middle;spacingTop=-1;spacingLeft=3;spacingRight=3;rotatable=0;labelPosition=right;points=[];portConstraint=eastwest;strokeColor=inherit;" vertex="1" parent="VbfOcrhfjZlmH5prXV36-9">
          <mxGeometry y="84" width="220" height="8" as="geometry" />
        </mxCell>
        <mxCell id="VbfOcrhfjZlmH5prXV36-12" value="+ getCantidadDeHorasExtra(): Double&lt;div&gt;+ getMontoPercibido(): Double&lt;br&gt;&lt;/div&gt;" style="text;strokeColor=none;fillColor=none;align=left;verticalAlign=top;spacingLeft=4;spacingRight=4;overflow=hidden;rotatable=0;points=[[0,0.5],[1,0.5]];portConstraint=eastwest;whiteSpace=wrap;html=1;" vertex="1" parent="VbfOcrhfjZlmH5prXV36-9">
          <mxGeometry y="92" width="220" height="48" as="geometry" />
        </mxCell>
        <mxCell id="VbfOcrhfjZlmH5prXV36-13" value="Extends" style="endArrow=block;endSize=16;endFill=0;html=1;rounded=0;exitX=0.5;exitY=0;exitDx=0;exitDy=0;entryX=0.594;entryY=1.038;entryDx=0;entryDy=0;entryPerimeter=0;" edge="1" parent="1" source="VbfOcrhfjZlmH5prXV36-9" target="VbfOcrhfjZlmH5prXV36-8">
          <mxGeometry width="160" relative="1" as="geometry">
            <mxPoint x="330" y="230" as="sourcePoint" />
            <mxPoint x="490" y="230" as="targetPoint" />
          </mxGeometry>
        </mxCell>
        <mxCell id="VbfOcrhfjZlmH5prXV36-14" value="ingresos" style="endArrow=block;endFill=1;html=1;edgeStyle=orthogonalEdgeStyle;align=left;verticalAlign=top;rounded=0;exitX=1;exitY=0.5;exitDx=0;exitDy=0;entryX=0;entryY=0.5;entryDx=0;entryDy=0;" edge="1" parent="1" source="VbfOcrhfjZlmH5prXV36-2" target="VbfOcrhfjZlmH5prXV36-6">
          <mxGeometry x="-0.7714" y="-5" relative="1" as="geometry">
            <mxPoint x="330" y="230" as="sourcePoint" />
            <mxPoint x="490" y="230" as="targetPoint" />
            <mxPoint as="offset" />
          </mxGeometry>
        </mxCell>
        <mxCell id="VbfOcrhfjZlmH5prXV36-15" value="*" style="edgeLabel;resizable=0;html=1;align=left;verticalAlign=bottom;" connectable="0" vertex="1" parent="VbfOcrhfjZlmH5prXV36-14">
          <mxGeometry x="-1" relative="1" as="geometry">
            <mxPoint x="140" y="5" as="offset" />
          </mxGeometry>
        </mxCell>
      </root>
    </mxGraphModel>
  </diagram>
</mxfile>
